<mxfile host="app.diagrams.net" modified="2023-03-27T11:12:40.831Z" agent="Mozilla/5.0 (Macintosh; Intel Mac OS X 10_15_7) AppleWebKit/605.1.15 (KHTML, like Gecko) Version/16.0 Safari/605.1.15" version="21.1.1" etag="zV7vR753WOfbuHaC6kdD" type="github">
  <diagram name="PÃ¡gina-1" id="Ap-tFkqhB3cl4Cob4Rmb">
    <mxGraphModel>
      <root>
        <mxCell id="0" />
        <mxCell id="1" parent="0" />
      </root>
    </mxGraphModel>
  </diagram>
</mxfile>
